<?xml version="1.0" standalone="no"?>
<!DOCTYPE svg PUBLIC "-//W3C//DTD SVG 20010904//EN"
 "http://www.w3.org/TR/2001/REC-SVG-20010904/DTD/svg10.dtd">
<svg version="1.0" xmlns="http://www.w3.org/2000/svg"
 width="512.000000pt" height="512.000000pt" viewBox="0 0 512.000000 512.000000"
 preserveAspectRatio="xMidYMid meet">

<g transform="translate(0.000000,512.000000) scale(0.100000,-0.100000)"
fill="#000000" stroke="none">
<path d="M2513 4047 c-24 -5 -43 -14 -43 -18 0 -5 -23 -9 -52 -9 -33 0 -58 -6
-69 -16 -16 -14 -28 -15 -86 -6 -71 10 -102 2 -146 -36 -12 -10 -41 -17 -87
-18 -65 -3 -72 -5 -106 -38 -21 -20 -41 -36 -47 -36 -19 0 -85 -61 -97 -90
-11 -27 -17 -30 -54 -30 -31 0 -53 -8 -84 -31 -23 -17 -42 -37 -42 -44 0 -7
-6 -15 -13 -18 -7 -3 -22 -30 -32 -61 -17 -51 -22 -56 -49 -56 -16 0 -49 -12
-73 -27 l-45 -28 6 -75 c3 -41 8 -87 12 -102 6 -25 3 -28 -37 -39 -63 -18 -77
-33 -85 -96 -5 -45 -3 -62 12 -87 25 -42 21 -129 -8 -158 -17 -17 -19 -27 -13
-72 4 -28 9 -71 10 -96 2 -25 12 -66 23 -91 14 -33 19 -59 15 -88 -6 -46 6
-71 77 -148 45 -49 91 -86 61 -50 -7 9 -10 17 -6 17 4 0 2 6 -4 13 -6 8 -12
41 -13 74 -2 34 -6 59 -10 56 -5 -2 -8 3 -8 11 0 9 3 16 8 16 4 0 8 42 9 93 2
65 10 114 27 167 30 91 62 156 69 138 3 -7 6 1 7 17 1 17 4 22 7 13 2 -9 -2
-36 -10 -60 -26 -75 -50 -350 -42 -468 7 -104 12 -155 15 -155 2 0 2 -4 19
-115 20 -137 18 -133 57 -125 26 4 34 2 34 -8 0 -8 7 -20 15 -27 13 -11 14 -2
10 66 -3 44 -14 129 -25 189 -27 143 -37 360 -21 446 10 52 10 87 -3 189 -17
141 -14 170 35 279 25 56 48 85 129 164 80 78 114 103 182 135 215 102 569
182 810 182 109 0 165 -10 268 -50 85 -32 95 -39 162 -106 35 -35 70 -64 78
-64 8 0 24 -11 34 -25 10 -14 24 -25 30 -25 7 0 17 -19 23 -43 7 -23 21 -53
31 -65 12 -13 18 -31 15 -42 -5 -19 -6 -19 -24 3 -17 19 -17 16 3 -28 13 -27
26 -51 31 -53 4 -2 7 -8 7 -13 0 -19 41 -99 50 -99 14 0 1 81 -16 101 -10 11
-14 44 -13 113 1 73 -3 102 -14 114 -8 10 -18 49 -22 91 -8 76 -36 141 -63
141 -7 0 -17 11 -22 25 -5 14 -14 25 -18 25 -5 0 -12 18 -16 41 -15 93 -58
135 -133 126 -40 -4 -49 -2 -71 22 -13 14 -35 42 -47 62 -18 27 -35 39 -69 49
-25 7 -57 10 -72 7 -14 -2 -39 2 -56 10 -25 13 -37 13 -69 4 -31 -9 -43 -9
-61 3 -24 14 -74 31 -118 39 -14 2 -44 0 -67 -6z m901 -833 c3 -8 2 -12 -4 -9
-6 3 -10 10 -10 16 0 14 7 11 14 -7z"/>
<path d="M2675 3402 c-26 -6 -30 -12 -33 -45 -4 -48 4 -51 113 -39 154 17 264
-11 401 -101 38 -25 91 -67 117 -92 27 -25 51 -45 53 -45 28 0 -106 137 -197
201 -130 93 -203 120 -329 124 -52 2 -108 1 -125 -3z"/>
<path d="M2204 3256 c-44 -17 -99 -45 -124 -61 -74 -47 -152 -135 -197 -221
-74 -141 -111 -267 -44 -145 107 190 212 278 424 352 37 13 67 29 67 36 0 20
-22 62 -35 67 -7 2 -48 -10 -91 -28z"/>
<path d="M3275 2870 c45 -11 87 -11 80 0 -3 6 -30 9 -58 9 -45 -1 -48 -2 -22
-9z"/>
<path d="M2988 2843 c7 -3 16 -2 19 1 4 3 -2 6 -13 5 -11 0 -14 -3 -6 -6z"/>
<path d="M2228 2693 c7 -3 16 -2 19 1 4 3 -2 6 -13 5 -11 0 -14 -3 -6 -6z"/>
<path d="M2015 2631 c-74 -31 -150 -74 -138 -78 7 -3 54 18 105 46 94 51 106
63 33 32z"/>
<path d="M2742 2538 c-26 -39 -32 -43 -66 -40 -48 4 -98 -13 -114 -38 -24 -39
23 -110 73 -110 9 0 30 14 46 31 l30 32 22 -22 c19 -17 36 -21 88 -21 61 0 67
2 87 30 25 33 26 41 12 91 -8 29 -20 41 -63 62 -29 15 -60 27 -69 27 -9 0 -30
-19 -46 -42z"/>
<path d="M3495 2528 c-26 -78 -37 -155 -36 -258 1 -137 -17 -227 -76 -367 -11
-27 -17 -31 -36 -24 -12 4 -29 21 -37 38 -12 22 -21 28 -34 23 -9 -3 -17 -9
-16 -14 1 -4 -5 -13 -12 -19 -8 -7 -22 -37 -33 -67 -10 -30 -31 -70 -47 -89
-16 -18 -33 -44 -38 -56 -17 -44 -164 -125 -227 -125 -29 0 -29 -13 0 -29 41
-22 129 -30 167 -16 19 7 48 16 63 20 l28 6 -7 -48 c-9 -63 -22 -96 -34 -88
-5 3 -10 0 -10 -8 0 -20 -125 -132 -185 -167 -76 -43 -131 -59 -230 -66 -49
-3 -103 -10 -120 -15 -39 -11 -102 4 -126 30 -13 14 -31 21 -52 20 -18 -1 -24
-3 -15 -6 19 -5 22 -48 5 -70 -16 -22 -62 -15 -87 12 l-24 26 22 6 c12 3 22
11 22 18 0 22 37 47 60 40 30 -10 98 4 79 15 -12 8 -12 11 0 22 11 10 14 10
18 1 3 -7 14 -13 25 -13 19 0 19 1 -4 29 -13 17 -29 30 -35 30 -7 1 -13 5 -13
10 0 5 -6 16 -12 23 -20 21 -38 56 -38 73 0 8 -3 15 -7 15 -5 0 -28 27 -52 60
-24 33 -47 60 -52 60 -5 0 -18 15 -29 33 -11 17 -20 26 -20 20 0 -7 -10 -13
-23 -13 -12 0 -28 -9 -35 -20 -7 -12 -16 -18 -21 -15 -13 7 -27 -14 -47 -72
-10 -29 -22 -53 -26 -53 -5 0 -8 -9 -8 -19 0 -11 -5 -23 -11 -27 -6 -3 -9 -15
-6 -25 3 -11 1 -19 -4 -19 -5 0 -9 -5 -9 -11 0 -6 7 -8 16 -5 8 3 12 2 9 -4
-11 -17 -26 -11 -57 23 -17 17 -48 51 -69 74 -21 23 -39 48 -39 56 0 8 -6 20
-14 27 -12 9 -19 4 -36 -32 -12 -24 -34 -53 -48 -65 -20 -17 -23 -23 -11 -23
9 0 22 7 29 15 17 21 20 20 67 -24 46 -43 166 -131 178 -131 5 0 17 -7 27 -17
33 -29 33 -4 0 30 -41 42 -41 54 1 29 17 -11 50 -30 72 -42 51 -28 51 -28 59
-70 4 -24 3 -30 -3 -20 -6 8 -13 12 -16 9 -10 -11 84 -93 143 -126 145 -81
209 -103 377 -129 149 -23 266 -18 360 14 76 26 135 31 135 12 0 -5 -8 -11
-17 -13 -17 -4 -17 -5 -1 -6 11 -1 15 -6 12 -16 -8 -19 -4 -19 44 0 38 15 48
34 77 135 8 26 27 55 75 115 123 152 159 223 160 312 0 18 19 69 45 118 25 46
45 88 44 92 -1 5 0 10 1 13 2 7 8 47 11 88 3 32 4 33 44 26 32 -4 46 -1 64 13
23 19 23 20 7 46 -10 15 -23 24 -32 20 -8 -3 -18 5 -25 21 -16 34 -29 24 -29
-22 0 -20 -4 -43 -8 -49 -5 -7 -7 15 -6 50 3 118 -21 329 -46 402 -17 51 -87
213 -104 241 -1 1 -11 5 -24 8 -14 5 -24 3 -27 -6z m-278 -1564 c-3 -3 -12 -4
-19 -1 -8 3 -5 6 6 6 11 1 17 -2 13 -5z"/>
<path d="M2494 2495 c-3 -13 -4 -30 -1 -37 3 -7 6 -2 6 13 1 14 6 30 13 37 9
9 9 12 0 12 -6 0 -14 -11 -18 -25z"/>
<path d="M3190 2445 c7 -8 19 -15 26 -15 8 0 14 7 14 15 0 10 -10 15 -26 15
-22 0 -25 -2 -14 -15z"/>
<path d="M3240 2418 c0 -8 7 -23 15 -35 15 -21 6 -41 -14 -29 -4 3 -16 -3 -26
-14 -10 -11 -24 -20 -32 -20 -19 0 -16 -18 5 -23 13 -4 11 -5 -5 -6 -13 0 -22
-7 -20 -13 1 -10 -33 -15 -133 -19 -115 -5 -142 -9 -180 -29 -33 -17 -64 -24
-115 -26 -38 -1 -83 -5 -100 -8 -59 -13 -150 -39 -160 -46 -5 -4 -47 -20 -92
-34 -46 -15 -85 -32 -88 -37 -4 -5 -17 -9 -31 -9 -22 0 -23 -3 -14 -20 6 -11
22 -27 35 -36 20 -13 28 -14 40 -4 8 7 12 16 9 21 -3 5 2 9 11 9 9 0 14 4 11
8 -6 10 263 59 369 68 44 3 98 11 120 17 55 14 107 18 100 6 -4 -5 -1 -9 6 -9
9 0 9 -3 0 -14 -10 -12 -7 -15 21 -14 18 1 42 7 53 14 37 23 94 28 115 9 18
-16 18 -18 0 -47 -25 -41 -53 -58 -97 -60 -21 -1 -47 -7 -58 -14 -11 -7 -49
-18 -85 -25 -36 -6 -69 -15 -75 -19 -36 -27 -157 -44 -328 -45 -88 0 -127 -3
-127 -11 0 -16 50 -59 145 -125 127 -87 126 -87 200 -61 35 12 88 22 117 22
30 0 59 5 65 11 6 6 55 12 114 12 l104 2 47 79 c33 56 52 103 64 158 9 43 21
78 25 78 12 0 11 113 -1 144 -8 23 -6 27 26 42 33 16 54 46 54 79 0 8 -6 12
-14 9 -11 -4 -13 0 -9 17 4 15 3 20 -5 15 -7 -4 -12 -4 -12 1 0 4 -12 16 -25
26 -18 13 -25 14 -25 5z m-50 -292 c0 -3 -4 -8 -10 -11 -5 -3 -10 -1 -10 4 0
6 5 11 10 11 6 0 10 -2 10 -4z"/>
<path d="M3696 2398 c-21 -30 -20 -52 4 -116 11 -29 20 -61 20 -72 0 -34 18
-22 33 23 9 23 16 35 16 26 1 -9 8 -23 17 -30 15 -12 16 -11 9 11 -4 14 -11
39 -15 57 -7 30 -56 123 -65 123 -2 0 -11 -10 -19 -22z"/>
<path d="M2280 2403 c0 -7 -6 -13 -14 -13 -26 0 -81 -77 -116 -162 -35 -83
-42 -135 -26 -192 l7 -30 20 30 c10 16 19 40 19 53 0 19 4 22 21 18 14 -4 19
-2 16 7 -3 8 5 35 18 62 14 27 25 54 25 60 0 6 27 39 61 74 60 63 61 63 38 76
-13 6 -29 9 -37 6 -8 -2 -18 1 -23 9 -6 10 -9 10 -9 2z"/>
<path d="M2248 2083 c7 -3 16 -2 19 1 4 3 -2 6 -13 5 -11 0 -14 -3 -6 -6z"/>
<path d="M1555 1930 c-3 -5 -1 -10 4 -10 6 0 11 5 11 10 0 6 -2 10 -4 10 -3 0
-8 -4 -11 -10z"/>
<path d="M1930 927 c-19 -11 -57 -33 -85 -47 -31 -16 -51 -34 -53 -47 -5 -35
75 -200 147 -303 53 -76 71 -109 71 -134 0 -20 17 -62 45 -112 l45 -79 0 -102
0 -103 448 2 c246 1 423 3 395 5 -45 3 -53 7 -53 24 0 16 7 19 50 19 67 0 70
25 5 33 -26 2 -48 7 -51 10 -14 14 11 27 51 27 24 0 46 4 49 8 8 13 -8 30 -29
30 -56 -1 -75 3 -75 16 0 11 15 16 53 18 28 2 51 8 50 13 -1 6 -8 11 -15 12
-64 9 -88 15 -88 23 0 6 23 10 50 10 43 0 50 3 50 19 0 16 -6 19 -36 16 -49
-3 -74 4 -74 23 0 12 10 14 55 9 50 -5 55 -4 55 14 0 11 -5 17 -10 14 -18 -11
-100 6 -100 21 0 10 15 14 55 14 42 0 55 3 55 15 0 12 -13 15 -55 15 -42 0
-55 3 -55 15 0 12 13 15 55 15 41 0 55 4 55 15 0 10 -15 15 -57 17 -77 4 -86
28 -9 28 30 0 57 4 61 9 9 15 -29 31 -74 31 -23 0 -41 5 -41 10 0 6 26 10 58
11 67 1 45 17 -25 18 -24 1 -43 6 -43 11 0 6 20 8 55 4 35 -4 55 -3 55 3 0 6
-27 13 -60 17 -77 9 -79 26 -2 19 42 -3 53 -2 42 6 -8 6 -31 11 -50 11 -19 0
-42 5 -50 11 -11 7 4 8 50 4 46 -4 61 -3 50 4 -8 6 -31 11 -50 11 -19 0 -42 5
-50 11 -11 7 2 8 45 5 l60 -5 -50 13 c-80 20 -85 26 -20 21 l60 -4 -53 13
c-30 8 -57 17 -60 22 -7 7 28 2 83 -12 20 -5 26 -4 21 5 -4 6 -14 11 -22 11
-8 0 -14 8 -14 18 0 14 -2 15 -10 2 -6 -10 -10 -11 -10 -2 0 6 -6 12 -14 12
-8 0 -17 -6 -19 -12 -3 -7 -13 6 -23 28 -18 39 -22 42 -69 48 -27 3 -99 9
-160 12 -72 4 -138 14 -192 30 -52 16 -142 30 -240 39 -194 18 -190 18 -233
-8z"/>
<path d="M3540 901 c-35 -11 -68 -17 -72 -15 -4 3 -48 -1 -99 -8 -76 -10 -96
-16 -115 -37 -13 -13 -21 -28 -18 -33 3 -5 2 -8 -3 -7 -22 4 -33 -3 -33 -22 0
-16 -4 -19 -20 -14 -14 4 -20 2 -20 -9 0 -11 8 -13 34 -9 58 9 83 -2 90 -41 6
-33 8 -34 39 -25 48 14 68 9 22 -5 -38 -12 -41 -16 -36 -57 1 -8 15 -10 41 -6
22 3 40 1 40 -3 0 -5 -18 -11 -40 -15 -22 -4 -40 -11 -40 -16 0 -5 18 -6 40
-3 27 4 40 3 40 -5 0 -6 -11 -11 -24 -11 -35 0 -56 -10 -56 -26 0 -10 12 -14
40 -14 49 0 53 -17 5 -26 -25 -4 -35 -12 -35 -24 0 -16 6 -18 35 -13 28 4 35
2 35 -11 0 -12 -9 -16 -35 -16 -29 0 -35 -4 -35 -20 0 -18 4 -20 35 -14 28 5
35 3 35 -10 0 -10 -9 -16 -23 -16 -13 0 -32 -6 -43 -14 -22 -16 -13 -22 41
-29 l30 -3 -25 -11 c-14 -6 -33 -14 -42 -17 -31 -9 -10 -36 23 -29 22 4 29 2
29 -11 0 -11 -9 -16 -30 -16 -24 0 -30 -4 -30 -21 0 -19 4 -21 30 -15 25 4 30
2 30 -14 0 -14 -8 -20 -32 -22 -22 -2 -34 -9 -36 -20 -3 -15 4 -18 32 -18 29
0 36 -4 36 -20 0 -16 -7 -20 -35 -20 -29 0 -35 -4 -35 -21 0 -19 4 -21 31 -15
25 5 30 3 27 -12 -2 -10 -14 -18 -31 -20 -15 -2 -27 -8 -27 -13 0 -5 155 -9
391 -9 l391 0 -3 214 -3 214 30 58 c25 51 29 72 32 160 l4 100 -97 76 -97 76
-111 6 c-62 4 -141 9 -177 11 -46 3 -84 -1 -130 -14z m176 -40 c15 -15 58 -25
50 -12 -4 6 -3 11 2 11 6 0 12 -7 16 -15 3 -8 1 -15 -5 -15 -6 0 -7 -6 -3 -12
4 -7 -2 -5 -14 6 -13 11 -30 16 -43 13 -11 -3 -18 -3 -15 0 3 4 1 12 -5 20
-13 14 1 18 17 4z m154 -66 c14 -8 21 -14 15 -14 -5 0 -21 6 -35 14 -14 8 -20
14 -15 14 6 0 21 -6 35 -14z m-587 -16 c-5 -18 -3 -20 16 -15 11 3 31 9 42 12
14 4 19 2 15 -4 -9 -16 -66 -26 -78 -14 -6 6 -8 18 -5 26 9 23 16 19 10 -5z
m-38 -9 c3 -5 1 -10 -4 -10 -6 0 -11 5 -11 10 0 6 2 10 4 10 3 0 8 -4 11 -10z
m655 -20 c19 -17 30 -30 25 -30 -13 0 -75 44 -75 53 0 13 15 6 50 -23z m-545
-9 c-14 -12 -73 -25 -60 -13 6 6 19 12 30 15 34 8 40 8 30 -2z m10 -31 c-3 -5
-21 -10 -38 -9 -31 1 -31 1 -7 9 36 11 52 11 45 0z m15 -59 c0 -11 -25 -21
-53 -21 -35 0 -1 22 46 29 4 0 7 -3 7 -8z"/>
</g>
</svg>
